<svg width="23" height="17" viewBox="0 0 23 17" fill="none" xmlns="http://www.w3.org/2000/svg">
<g clip-path="url(#clip0)">
<path d="M21.0961 6.39609C19.0961 4.59609 15.5961 1.99609 11.4961 1.99609C10.4961 1.99609 9.49609 2.19609 8.49609 2.39609L9.29609 3.19609C9.99609 2.99609 10.6961 2.89609 11.4961 2.89609C15.1961 2.89609 18.4961 5.29609 20.3961 6.99609C21.1961 7.79609 21.1961 8.99609 20.3961 9.79609C19.6961 10.3961 18.8961 11.0961 17.8961 11.7961L18.5961 12.4961C19.5961 11.7961 20.3961 11.1961 21.0961 10.5961C22.3961 9.49609 22.3961 7.49609 21.0961 6.39609Z" fill="white"/>
<path d="M11.4977 4.49609C11.1977 4.49609 10.8977 4.49609 10.5977 4.59609L15.3977 9.39609C15.4977 9.09609 15.4977 8.79609 15.4977 8.59609C15.4977 6.29609 13.6977 4.49609 11.4977 4.49609Z" fill="white"/>
<path d="M3.89687 1.29609L5.99687 3.49609C4.29687 4.39609 2.89687 5.49609 1.89687 6.39609C0.596875 7.49609 0.596875 9.49609 1.89687 10.5961C3.89687 12.3961 7.39688 14.9961 11.4969 14.9961C13.2969 14.9961 14.8969 14.4961 16.3969 13.7961L19.0969 16.4961L19.8969 15.6961L4.79688 0.496094L3.89687 1.29609ZM11.4969 13.9961C7.79688 13.9961 4.49687 11.5961 2.59687 9.89609C1.79687 9.09609 1.79687 7.89609 2.59687 7.09609C3.69688 6.09609 5.09688 4.99609 6.79688 4.19609L8.49687 5.89609C7.79688 6.59609 7.49687 7.49609 7.49687 8.49609C7.49687 10.6961 9.29688 12.4961 11.4969 12.4961C12.4969 12.4961 13.3969 12.0961 14.0969 11.4961L15.5969 12.9961C14.3969 13.5961 12.8969 13.9961 11.4969 13.9961Z" fill="white"/>
</g>
<defs>
<clipPath id="clip0">
<rect width="21.2" height="16" fill="white" transform="translate(0.898438 0.496094)"/>
</clipPath>
</defs>
</svg>
