<svg width="22" height="14" viewBox="0 0 22 14" fill="none" xmlns="http://www.w3.org/2000/svg">
<path fill-rule="evenodd" clip-rule="evenodd" d="M2.47884 5.30194C4.41198 3.54943 7.71797 1.1875 11.423 1.1875C15.1281 1.1875 18.4341 3.54943 20.3672 5.30194C21.2088 6.06489 21.2088 7.31011 20.3672 8.07306C18.4341 9.82557 15.1281 12.1875 11.423 12.1875C7.71797 12.1875 4.41198 9.82557 2.47884 8.07306C1.63726 7.31011 1.63726 6.06489 2.47884 5.30194ZM11.423 0.1875C7.3271 0.1875 3.78041 2.77222 1.80719 4.56107C0.52781 5.72091 0.52781 7.65409 1.8072 8.81393C3.78042 10.6028 7.3271 13.1875 11.423 13.1875C15.519 13.1875 19.0657 10.6028 21.0389 8.81393C22.3183 7.65409 22.3183 5.72091 21.0389 4.56107C19.0657 2.77222 15.519 0.1875 11.423 0.1875ZM11.423 10.6875C13.6322 10.6875 15.423 8.89664 15.423 6.6875C15.423 4.47836 13.6322 2.6875 11.423 2.6875C9.2139 2.6875 7.42304 4.47836 7.42304 6.6875C7.42304 8.89664 9.2139 10.6875 11.423 10.6875Z" fill="white"/>
</svg>
